<svg width="73" height="72" viewBox="0 0 73 72" fill="none" xmlns="http://www.w3.org/2000/svg">
<g clip-path="url(#clip0_106_341)">
<path d="M71.8879 29.7412C71.6937 29.5889 69.8791 28.2373 66.0514 28.2373C65.0403 28.2417 64.0322 28.3269 63.036 28.4926C62.2953 23.4835 58.2286 21.1298 58.0404 21.0208L57.0129 20.4353L56.3363 21.3971C55.4895 22.6905 54.7413 24.0257 54.3784 25.5236C53.6929 28.3836 54.1095 31.0689 55.5821 33.3644C53.8019 34.3426 50.7686 34.4292 50.1922 34.4501H3.27018C2.03657 34.4516 1.03594 35.4358 1.02848 36.6515C0.973219 40.7332 1.55567 44.9448 2.97895 48.777C4.60535 52.9857 7.02627 56.0861 10.1745 57.9828C13.7021 60.114 19.4341 61.3327 25.9322 61.3327C28.8668 61.3417 31.797 61.0803 34.6824 60.5501C38.6939 59.8228 42.5545 58.4399 46.103 56.458C49.0273 54.7868 51.6588 52.6616 53.8975 50.163C57.6386 45.9842 59.8669 41.3321 61.5247 37.1966C61.7472 37.1966 61.9697 37.1966 62.1848 37.1966C66.2814 37.1966 68.7994 35.5792 70.1883 34.2246C71.1113 33.3599 71.8326 32.307 72.3001 31.1406L72.5943 30.2923L71.8879 29.7412Z" fill="#2395EC"/>
<path d="M12.8552 32.9566H8.37481C7.55042 32.9566 6.88135 32.2875 6.88135 31.4631V26.9827C6.88135 26.1583 7.55042 25.4892 8.37481 25.4892H12.8552C13.6796 25.4892 14.3487 26.1583 14.3487 26.9827V31.4631C14.3487 32.2875 13.6796 32.9566 12.8552 32.9566Z" fill="#2395EC"/>
<path d="M21.816 32.9566H17.3356C16.5112 32.9566 15.8422 32.2875 15.8422 31.4631V26.9827C15.8422 26.1583 16.5112 25.4892 17.3356 25.4892H21.816C22.6404 25.4892 23.3095 26.1583 23.3095 26.9827V31.4631C23.3095 32.2875 22.6404 32.9566 21.816 32.9566Z" fill="#2395EC"/>
<path d="M30.777 32.9566H26.2966C25.4722 32.9566 24.8031 32.2875 24.8031 31.4631V26.9827C24.8031 26.1583 25.4722 25.4892 26.2966 25.4892H30.777C31.6014 25.4892 32.2704 26.1583 32.2704 26.9827V31.4631C32.2704 32.2875 31.6014 32.9566 30.777 32.9566Z" fill="#2395EC"/>
<path d="M39.7378 32.9566H35.2574C34.433 32.9566 33.7639 32.2875 33.7639 31.4631V26.9827C33.7639 26.1583 34.433 25.4892 35.2574 25.4892H39.7378C40.5622 25.4892 41.2312 26.1583 41.2312 26.9827V31.4631C41.2312 32.2875 40.5622 32.9566 39.7378 32.9566Z" fill="#2395EC"/>
<path d="M21.816 23.9957H17.3356C16.5112 23.9957 15.8422 23.3267 15.8422 22.5023V18.0219C15.8422 17.1975 16.5112 16.5284 17.3356 16.5284H21.816C22.6404 16.5284 23.3095 17.1975 23.3095 18.0219V22.5023C23.3095 23.3267 22.6404 23.9957 21.816 23.9957Z" fill="#2395EC"/>
<path d="M30.777 23.9957H26.2966C25.4722 23.9957 24.8031 23.3267 24.8031 22.5023V18.0219C24.8031 17.1975 25.4722 16.5284 26.2966 16.5284H30.777C31.6014 16.5284 32.2704 17.1975 32.2704 18.0219V22.5023C32.2704 23.3267 31.6014 23.9957 30.777 23.9957Z" fill="#2395EC"/>
<path d="M39.7378 23.9957H35.2574C34.433 23.9957 33.7639 23.3267 33.7639 22.5023V18.0219C33.7639 17.1975 34.433 16.5284 35.2574 16.5284H39.7378C40.5622 16.5284 41.2312 17.1975 41.2312 18.0219V22.5023C41.2312 23.3267 40.5622 23.9957 39.7378 23.9957Z" fill="#2395EC"/>
<path d="M39.7378 15.0348H35.2574C34.433 15.0348 33.7639 14.3657 33.7639 13.5414V9.06094C33.7639 8.23655 34.433 7.56747 35.2574 7.56747H39.7378C40.5622 7.56747 41.2312 8.23655 41.2312 9.06094V13.5414C41.2312 14.3657 40.5622 15.0348 39.7378 15.0348Z" fill="#2395EC"/>
<path d="M48.6985 32.9566H44.2181C43.3937 32.9566 42.7246 32.2875 42.7246 31.4631V26.9827C42.7246 26.1583 43.3937 25.4892 44.2181 25.4892H48.6985C49.5229 25.4892 50.1919 26.1583 50.1919 26.9827V31.4631C50.1919 32.2875 49.5229 32.9566 48.6985 32.9566Z" fill="#2395EC"/>
</g>
<defs>
<clipPath id="clip0_106_341">
<rect width="71.6866" height="71.6867" fill="white" transform="translate(0.907471 0.100128)"/>
</clipPath>
</defs>
</svg>
