<svg xmlns="http://www.w3.org/2000/svg" width="47" height="47" viewBox="0 0 47 47" fill="none">
  <g clip-path="url(#clip0_7_68)">
    <path d="M0 0H47V47H0V0Z" fill="#F0DB4F"/>
    <path d="M43.1533 35.7906C42.8093 33.6461 41.4109 31.8456 37.2694 30.1658C35.8308 29.5046 34.2269 29.031 33.7489 27.9409C33.5791 27.3065 33.5568 26.9491 33.664 26.5648C33.9723 25.3183 35.46 24.9297 36.6395 25.2871C37.399 25.5417 38.1183 26.127 38.5516 27.0607C40.58 25.7473 40.5755 25.7562 41.9917 24.8538C41.4735 24.0496 41.1965 23.6787 40.8569 23.3347C39.6373 21.9721 37.9753 21.2707 35.317 21.3243C34.8569 21.3824 34.3923 21.4449 33.932 21.503C32.6052 21.8381 31.3408 22.535 30.5992 23.4688C28.3743 25.993 29.0087 30.4115 31.7161 32.2299C34.3833 34.2314 38.3014 34.6871 38.8018 36.5591C39.2888 38.851 37.1175 39.5926 34.9596 39.329C33.3691 38.9984 32.4846 38.1898 31.5284 36.7199C29.7682 37.7385 29.7682 37.7385 27.9588 38.7795C28.3877 39.7177 28.8389 40.1422 29.5582 40.9553C32.9626 44.4088 41.4824 44.239 43.0104 39.0118C43.0729 38.8331 43.484 37.6357 43.1533 35.7906ZM25.5507 21.6012H21.1545C21.1545 25.3988 21.1367 29.1695 21.1367 32.967C21.1367 35.384 21.2617 37.6 20.8686 38.2791C20.2252 39.6149 18.5588 39.4496 17.7993 39.1905C17.0264 38.8107 16.6332 38.2701 16.1775 37.5062C16.0524 37.2873 15.9586 37.1175 15.9273 37.1041C14.7345 37.8323 13.546 38.565 12.3531 39.2933C12.9474 40.5129 13.823 41.5718 14.9444 42.2597C16.6198 43.265 18.8715 43.5732 21.226 43.0327C22.7584 42.5859 24.0808 41.6611 24.7733 40.2538C25.7741 38.4087 25.5596 36.1748 25.5507 33.7042C25.573 29.6743 25.5507 25.6445 25.5507 21.6012Z" fill="#323330"/>
  </g>
  <defs>
    <clipPath id="clip0_7_68">
      <rect width="47" height="47" fill="white"/>
    </clipPath>
  </defs>
</svg>