<svg xmlns="http://www.w3.org/2000/svg" width="66" height="54" viewBox="0 0 66 54" fill="none">
  <path d="M30.3739 7.02057L31.8042 9.2186C32.1258 9.62422 32.4742 9.98325 32.8845 10.3176C34.0875 11.2896 35.2089 12.3271 36.2409 13.4228C38.6645 16.0265 40.2991 18.9179 41.4665 22.045C42.1666 23.9553 42.5468 25.9149 42.5753 27.8964C42.6925 33.8204 40.2104 38.9071 35.2059 43.1346C34.3918 43.805 33.5124 44.42 32.5763 44.9736C32.0806 44.9736 31.8461 44.6625 31.6418 44.3761C31.2697 43.845 31.022 43.2618 30.9115 42.6563C30.7357 41.9396 30.6201 41.223 30.677 40.483V40.1486C30.6368 40.0773 30.1997 7.18912 30.3739 7.02057Z" fill="#599636"/>
  <path d="M30.3739 6.94796C30.3152 6.85204 30.2566 6.92467 30.198 6.97126C30.2265 7.45088 30.0221 7.87842 29.7022 8.28679C29.3505 8.69241 28.8849 9.00348 28.4176 9.33784C25.8216 11.1768 23.7782 13.3982 22.1419 15.8826C19.9646 19.2262 18.8424 22.8097 18.5242 26.5822C18.3785 27.943 19.0501 32.7447 19.5743 34.1301C21.0047 37.8081 23.5739 40.89 26.9019 43.5649C27.7192 44.209 28.5935 44.8064 29.4979 45.3806C29.7609 45.3806 29.7893 45.1887 29.8496 45.0462C29.9649 44.7413 30.0528 44.4298 30.1126 44.1144L30.6988 40.5323L30.3739 6.94796Z" fill="#6CAC48"/>
  <path d="M31.8042 46.4289C31.8628 45.8808 32.1844 45.4258 32.5345 44.9722C32.1827 44.853 31.9215 44.6159 31.7171 44.3515C31.5409 44.101 31.3951 43.8371 31.2817 43.5635C30.873 42.5604 30.7859 41.508 30.6687 40.483V39.8622C30.5229 39.9581 30.4928 40.7694 30.4928 40.89C30.4076 41.9733 30.2319 43.0507 29.9669 44.1144C29.8798 44.5447 29.8212 44.9736 29.4979 45.3559C29.4979 45.4039 29.4979 45.4518 29.5264 45.5231C30.0523 46.7893 30.1963 48.0788 30.2851 49.3929V49.8726C30.2851 50.4454 30.2566 50.3248 30.8378 50.5166C31.0723 50.5879 31.3336 50.6126 31.5681 50.7551C31.7439 50.7551 31.7724 50.6358 31.7724 50.5399L31.6853 49.752V47.554C31.6568 47.1703 31.7439 46.7893 31.8025 46.4303L31.8042 46.4289Z" fill="#C2BFBF"/>
</svg>