<svg xmlns="http://www.w3.org/2000/svg" width="50" height="50" viewBox="0 0 50 50" fill="none">
  <g clip-path="url(#clip0_8_125)">
    <path d="M49.8062 29.9375C49.5064 29.0571 48.7211 28.4439 47.7055 28.2968C47.2265 28.2275 46.6781 28.257 46.0291 28.3868C44.8978 28.6131 44.0586 28.6992 43.4461 28.7159C45.758 24.9312 47.6379 20.6154 48.7201 16.5527C50.4701 9.98348 49.5349 6.99079 48.4422 5.63714C45.5502 2.05416 41.3308 0.129352 36.2406 0.0704567C33.5252 0.0382629 31.1414 0.558097 29.8978 0.931924C28.74 0.733837 27.4951 0.623242 26.1889 0.60279C23.7402 0.564915 21.5767 1.08248 19.7281 2.1462C18.7047 1.81062 17.0621 1.33756 15.1652 1.0357C10.7039 0.325545 7.10819 0.878899 4.47811 2.68042C1.29335 4.86164 -0.18302 8.65142 0.0900266 13.9444C0.176745 15.625 1.14628 20.7381 2.67284 25.5872C3.55018 28.3744 4.48573 30.689 5.4535 32.4672C6.82596 34.9887 8.29452 36.4736 9.94315 37.0069C10.8672 37.3054 12.5461 37.5144 14.3119 36.0884C14.5357 36.3513 14.8344 36.6124 15.2307 36.855C15.734 37.1628 16.3494 37.4143 16.9641 37.5633C19.1791 38.1002 21.2539 37.9659 23.024 37.2133C23.0349 37.5186 23.0433 37.8102 23.0504 38.0621C23.0621 38.4706 23.0738 38.8711 23.0892 39.2457C23.1941 41.7784 23.3719 43.7477 23.8984 45.1256C23.9273 45.2014 23.9662 45.3169 24.0072 45.4394C24.2699 46.2193 24.7092 47.5248 25.8267 48.5472C26.984 49.6064 28.3838 49.9312 29.6658 49.9312C30.3088 49.9312 30.9222 49.8494 31.4603 49.7377C33.3783 49.339 35.5566 48.7319 37.1324 46.5563C38.6222 44.4997 39.3465 41.4021 39.4775 36.5214C39.4945 36.3833 39.5101 36.2515 39.5252 36.1259L39.5564 35.868L39.9074 35.8979L39.9978 35.9038C41.9514 35.9902 44.34 35.5885 45.807 34.9278C46.9662 34.4062 50.6808 32.5047 49.8062 29.9375Z" fill="black"/>
    <path d="M46.466 30.4367C40.6574 31.5986 40.258 29.6917 40.258 29.6917C46.3908 20.8682 48.9547 9.66798 46.7424 6.92678C40.7064 -0.550691 30.2582 2.9857 30.0838 3.07736L30.0277 3.0872C28.8801 2.85617 27.5959 2.71868 26.1523 2.69576C23.5242 2.6541 21.5305 3.36388 20.0176 4.47627C20.0176 4.47627 1.3789 -2.96882 2.24589 13.8397C2.43026 17.4155 7.53183 40.8963 13.6166 33.804C15.8406 31.2105 17.9896 29.0178 17.9896 29.0178C19.0568 29.7052 20.3346 30.0559 21.674 29.93L21.7781 29.8444C21.7457 30.1663 21.7605 30.4812 21.8197 30.8541C20.2521 32.5522 20.7129 32.8503 17.5793 33.4758C14.4084 34.1095 16.2711 35.2374 17.4873 35.5324C18.9617 35.8898 22.3726 36.3962 24.6773 33.2679L24.5855 33.6249C25.1996 34.1019 25.6308 36.7274 25.5586 39.1077C25.4863 41.4877 25.4381 43.1218 25.9219 44.3982C26.406 45.6746 26.8883 48.5465 31.0078 47.6907C34.4498 46.9754 36.2336 45.122 36.4818 42.0303C36.6578 39.8324 37.0564 40.1574 37.0814 38.1922L37.4012 37.262C37.7697 34.2826 37.4598 33.3213 39.5803 33.7684L40.0959 33.8123C41.6564 33.8811 43.6994 33.5688 44.8984 33.0285C47.4801 31.8669 49.0113 29.9271 46.4656 30.4367H46.466Z" fill="#336791"/>
    <path d="M21.1086 15.4388C20.5852 15.3682 20.1111 15.4335 19.8713 15.6096C19.7365 15.7087 19.6947 15.8234 19.6834 15.9024C19.6533 16.1117 19.8045 16.3431 19.8975 16.4624C20.1604 16.8002 20.5443 17.0324 20.9244 17.0835C20.9795 17.0911 21.0344 17.0945 21.0889 17.0945C21.7227 17.0945 22.299 16.616 22.3498 16.2628C22.4133 15.8204 21.751 15.5253 21.1086 15.4388ZM38.4492 15.4528C38.3992 15.1061 37.7629 15.0072 37.159 15.0887C36.5559 15.1701 35.9711 15.4341 36.0199 15.7816C36.059 16.0518 36.5623 16.5131 37.158 16.5131C37.2084 16.5131 37.2592 16.5099 37.3104 16.5029C37.708 16.4495 37.9998 16.2046 38.1385 16.0636C38.3494 15.8484 38.4717 15.6087 38.4492 15.4528Z" fill="white"/>
    <path d="M48.3988 30.3047C48.1773 29.6554 47.4644 29.4465 46.2801 29.6836C42.7635 30.3873 41.5041 29.8998 41.0906 29.6046C43.824 25.5671 46.0726 20.6866 47.2857 16.133C47.8603 13.9761 48.1777 11.9728 48.2037 10.3401C48.2324 8.548 47.9176 7.23109 47.2684 6.42662C44.6508 3.18358 40.809 1.44398 36.1586 1.39625C32.9615 1.36141 30.2603 2.1547 29.7367 2.37779C28.634 2.1119 27.4318 1.94866 26.123 1.92783C23.723 1.89014 21.6484 2.44729 19.9308 3.58297C19.1848 3.31368 17.2566 2.67188 14.8986 2.30355C10.8221 1.66725 7.58261 2.1494 5.27089 3.73731C2.51249 5.63219 1.23905 9.01935 1.48573 13.8045C1.56874 15.4144 2.51483 20.3669 4.0078 25.1098C5.97304 31.3523 8.10936 34.8863 10.357 35.6133C10.6201 35.6983 10.9234 35.7578 11.258 35.7578C12.0779 35.7578 13.0832 35.3995 14.1291 34.1803C15.4048 32.6964 16.7244 31.2486 18.0863 29.8387C18.9699 30.2985 19.9406 30.5553 20.9334 30.581C20.9353 30.6062 20.9379 30.6314 20.9402 30.6564C20.7693 30.854 20.602 31.0544 20.4383 31.2577C19.7504 32.1044 19.6072 32.2807 17.393 32.7227C16.7631 32.8488 15.0902 33.183 15.0656 34.32C15.0391 35.5623 17.0432 36.0841 17.2715 36.1394C18.0672 36.3325 18.8338 36.4278 19.5648 36.4278C21.3428 36.4278 22.9074 35.8612 24.1578 34.7649C24.1193 39.1936 24.3098 43.5576 24.8582 44.8872C25.3074 45.9757 26.4047 48.6358 29.8707 48.6357C30.3793 48.6357 30.9391 48.5783 31.5549 48.4503C35.1723 47.6984 36.7432 46.1482 37.3508 42.7306C37.676 40.904 38.234 36.5425 38.4965 34.203C39.0504 34.3706 39.7635 34.4473 40.5344 34.4471C42.1422 34.4471 43.9975 34.1159 45.1609 33.5923C46.468 33.0037 48.8266 31.5595 48.3988 30.3047ZM39.7844 14.4957C39.7725 15.1864 39.6744 15.8134 39.5705 16.4679C39.4586 17.1718 39.343 17.8995 39.3139 18.783C39.2851 19.6427 39.3959 20.5366 39.5029 21.4011C39.7193 23.1471 39.9414 24.9447 39.0818 26.7183C38.939 26.473 38.8119 26.2195 38.701 25.9591C38.5941 25.708 38.3621 25.3047 38.0408 24.7464C36.791 22.5731 33.8643 17.4839 35.3625 15.4072C35.8088 14.789 36.9414 14.1535 39.7844 14.4957ZM36.3383 2.79479C40.5051 2.88398 43.8012 4.39539 46.1348 7.28676C47.9246 9.50453 45.9537 19.5958 40.248 28.3015C40.1907 28.2308 40.133 28.1603 40.075 28.09L40.0027 28.0025C41.4771 25.6416 41.1889 23.3056 40.9322 21.2346C40.8267 20.3847 40.7271 19.5819 40.7525 18.8278C40.7787 18.0287 40.8877 17.3431 40.9932 16.6803C41.1226 15.8636 41.2545 15.0184 41.2182 14.0221C41.2453 13.9175 41.2562 13.7941 41.242 13.6475C41.1492 12.6921 40.0242 9.83272 37.7312 7.24472C36.4769 5.82914 34.6478 4.24502 32.1504 3.17657C33.2246 2.96068 34.6935 2.75938 36.3383 2.79479ZM13.0223 33.288C11.8699 34.6314 11.0742 34.3738 10.8125 34.2894C9.10741 33.7379 7.12889 30.2436 5.38456 24.7024C3.87518 19.9079 2.99315 15.0866 2.92323 13.7346C2.70292 9.45889 3.77186 6.47908 6.10057 4.87772C9.89042 2.27192 16.1213 3.83162 18.625 4.62264C18.5891 4.6571 18.5516 4.6893 18.516 4.72433C14.4074 8.74741 14.5049 15.621 14.515 16.0412C14.5146 16.2033 14.5287 16.4328 14.5478 16.7485C14.6185 17.9046 14.7502 20.0563 14.3986 22.493C14.0721 24.7574 14.792 26.9736 16.3734 28.5737C16.5357 28.7375 16.7063 28.8935 16.8846 29.041C16.1807 29.772 14.6508 31.3885 13.0223 33.288ZM17.4127 27.608C16.1381 26.3184 15.5592 24.5246 15.8242 22.6862C16.1953 20.1122 16.0584 17.8704 15.9848 16.6659C15.9744 16.4974 15.9652 16.3497 15.9599 16.2332C16.5601 15.7172 19.3416 14.2722 21.3252 14.7129C22.2303 14.9138 22.7818 15.5115 23.0111 16.5394C24.1978 21.8614 23.1682 24.0796 22.3408 25.8622C22.1703 26.2294 22.0092 26.5765 21.8717 26.9356L21.765 27.2132C21.4951 27.915 21.2439 28.5676 21.0883 29.1872C19.7332 29.1834 18.415 28.6221 17.4127 27.6078V27.608ZM17.6207 34.7853C17.225 34.6895 16.8691 34.5231 16.6603 34.385C16.8348 34.3055 17.1451 34.1971 17.6834 34.0896C20.2883 33.5697 20.6906 33.2027 21.5691 32.1212C21.7705 31.8731 21.9988 31.5921 22.315 31.2497L22.3154 31.2493C22.7863 30.738 23.0017 30.8247 23.3924 30.9819C23.709 31.1088 24.0174 31.4936 24.1424 31.9171C24.2016 32.117 24.268 32.4966 24.0506 32.792C22.2154 35.2834 19.5412 35.2514 17.6207 34.7853ZM31.2533 47.0856C28.0666 47.7477 26.9383 46.1711 26.1947 44.3689C25.7148 43.2053 25.4789 37.9585 25.6463 32.1642C25.6484 32.0871 25.6371 32.0127 25.6152 31.9426C25.5957 31.8043 25.5659 31.6674 25.5262 31.5332C25.2773 30.6901 24.6709 29.9849 23.9433 29.6925C23.6543 29.5764 23.1238 29.3633 22.4863 29.5215C22.6223 28.9783 22.858 28.365 23.1137 27.7008L23.2209 27.4215C23.3416 27.1066 23.4932 26.7803 23.6533 26.4348C24.5191 24.5699 25.7049 22.0154 24.418 16.2446C23.9359 14.0831 22.3262 13.0275 19.8859 13.2727C18.423 13.4195 17.0846 13.9918 16.417 14.32C16.2734 14.3904 16.1422 14.4586 16.0195 14.5249C16.2058 12.3471 16.9098 8.27701 19.543 5.70188C21.201 4.08083 23.409 3.28016 26.0992 3.32333C31.4 3.40742 34.7992 6.04503 36.7176 8.24311C38.3707 10.137 39.2658 12.045 39.623 13.0741C36.9365 12.8091 35.1094 13.3233 34.1832 14.6072C32.1682 17.4001 35.2855 22.8208 36.7838 25.426C37.0586 25.9035 37.2957 26.3161 37.3703 26.4915C37.8582 27.6379 38.4898 28.4034 38.951 28.9621C39.0924 29.1333 39.2295 29.2993 39.3338 29.4444C38.5201 29.6718 37.0586 30.1973 37.1918 32.8242C37.0844 34.1422 36.3205 40.3132 35.9324 42.4935C35.4201 45.3739 34.3269 46.4467 31.2533 47.0858V47.0856ZM44.5549 32.3265C43.7228 32.7009 42.3305 32.9817 41.0078 33.0421C39.5469 33.1084 38.8031 32.8834 38.6281 32.745C38.5461 31.1081 39.1744 30.937 39.8394 30.756C39.9439 30.7276 40.0459 30.6998 40.1443 30.6664C40.2055 30.7147 40.2725 30.7626 40.3459 30.8096C41.5201 31.561 43.6144 31.6421 46.5713 31.0503L46.6037 31.044C46.2049 31.4056 45.5225 31.8907 44.5549 32.3265Z" fill="white"/>
  </g>
  <defs>
    <clipPath id="clip0_8_125">
      <rect width="50" height="50" fill="white"/>
    </clipPath>
  </defs>
</svg>