<svg xmlns="http://www.w3.org/2000/svg" width="45" height="42" viewBox="0 0 45 42" fill="none">
  <g clip-path="url(#clip0_7_74)">
    <path d="M22.3073 0.0118713C10.9122 0.0118713 11.6237 4.64258 11.6237 4.64258L11.6363 9.44013H22.5105V10.8805H7.31726C7.31726 10.8805 0.0254822 10.1055 0.0254822 20.8798C0.0254822 31.6543 6.38992 31.2722 6.38992 31.2722H10.1882V26.2724C10.1882 26.2724 9.98343 20.3084 16.451 20.3084H27.2363C27.2363 20.3084 33.2958 20.4002 33.2958 14.8206V5.59507C33.2958 5.59507 34.2161 0.0118713 22.3073 0.0118713ZM16.3113 3.23813C16.5683 3.23791 16.8228 3.28518 17.0602 3.37723C17.2977 3.46928 17.5134 3.6043 17.6951 3.77457C17.8768 3.94484 18.0209 4.14701 18.1191 4.36952C18.2174 4.59203 18.2678 4.83051 18.2676 5.07131C18.2678 5.3121 18.2174 5.55058 18.1191 5.77309C18.0209 5.9956 17.8768 6.19777 17.6951 6.36804C17.5134 6.53831 17.2977 6.67333 17.0602 6.76538C16.8228 6.85743 16.5683 6.9047 16.3113 6.90448C16.0543 6.9047 15.7999 6.85743 15.5624 6.76538C15.325 6.67333 15.1092 6.53831 14.9275 6.36804C14.7458 6.19777 14.6017 5.9956 14.5035 5.77309C14.4053 5.55058 14.3548 5.3121 14.355 5.07131C14.3548 4.83051 14.4053 4.59203 14.5035 4.36952C14.6017 4.14701 14.7458 3.94484 14.9275 3.77457C15.1092 3.6043 15.325 3.46928 15.5624 3.37723C15.7999 3.28518 16.0543 3.23791 16.3113 3.23813Z" fill="url(#paint0_linear_7_74)"/>
    <path d="M22.6309 41.8561C34.0261 41.8561 33.3146 37.2253 33.3146 37.2253L33.302 32.428H22.4276V30.9876H37.6209C37.6209 30.9876 44.9126 31.7625 44.9126 20.988C44.9126 10.2136 38.5482 10.5957 38.5482 10.5957H34.7499V15.5953C34.7499 15.5953 34.9547 21.5593 28.4871 21.5593H17.7018C17.7018 21.5593 11.6423 21.4676 11.6423 27.0473V36.273C11.6423 36.273 10.7222 41.8561 22.6308 41.8561H22.6309ZM28.627 38.6301C28.37 38.6303 28.1155 38.5831 27.8781 38.491C27.6406 38.399 27.4249 38.264 27.2432 38.0937C27.0615 37.9234 26.9174 37.7212 26.8192 37.4987C26.7209 37.2762 26.6705 37.0377 26.6707 36.7969C26.6705 36.5561 26.7209 36.3176 26.8191 36.0951C26.9173 35.8726 27.0614 35.6704 27.2431 35.5001C27.4248 35.3298 27.6406 35.1948 27.878 35.1027C28.1155 35.0107 28.37 34.9634 28.627 34.9636C28.8839 34.9634 29.1384 35.0107 29.3759 35.1027C29.6133 35.1948 29.8291 35.3298 30.0108 35.5C30.1925 35.6703 30.3366 35.8725 30.4348 36.095C30.533 36.3175 30.5835 36.556 30.5832 36.7968C30.5835 37.0376 30.533 37.2761 30.4348 37.4986C30.3366 37.7211 30.1925 37.9232 30.0108 38.0935C29.8291 38.2638 29.6133 38.3988 29.3759 38.4909C29.1384 38.5829 28.8839 38.6303 28.627 38.6301Z" fill="url(#paint1_linear_7_74)"/>
  </g>
  <defs>
    <linearGradient id="paint0_linear_7_74" x1="431.389" y1="376.375" x2="2512.86" y2="2575.44" gradientUnits="userSpaceOnUse">
      <stop stop-color="#387EB8"/>
      <stop offset="1" stop-color="#366994"/>
    </linearGradient>
    <linearGradient id="paint1_linear_7_74" x1="648.336" y1="653.935" x2="2890.31" y2="2915.65" gradientUnits="userSpaceOnUse">
      <stop stop-color="#FFE052"/>
      <stop offset="1" stop-color="#FFC331"/>
    </linearGradient>
    <clipPath id="clip0_7_74">
      <rect width="45" height="42" fill="white"/>
    </clipPath>
  </defs>
</svg>