<svg xmlns="http://www.w3.org/2000/svg" width="54" height="47" viewBox="0 0 54 47" fill="none">
  <path d="M54 23.5054C54 20.0092 49.5202 16.6958 42.6519 14.6411C44.2369 7.79927 43.5324 2.35592 40.4285 0.613183C39.713 0.204394 38.8765 0.0107574 37.9629 0.0107574V2.4097C38.4692 2.4097 38.8765 2.50652 39.2177 2.6894C40.7146 3.5285 41.364 6.72351 40.8577 10.8329C40.7367 11.8441 40.5385 12.9091 40.2964 13.9957C38.139 13.4793 35.7835 13.0813 33.307 12.8231C31.821 10.8329 30.2801 9.02563 28.7281 7.44427C32.3163 4.18471 35.6845 2.39895 37.9739 2.39895V0C34.947 0 30.9845 2.10849 26.978 5.76608C22.9715 2.13001 19.009 0.0430306 15.9821 0.0430306V2.44198C18.2605 2.44198 21.6396 4.21698 25.2279 7.45502C23.6869 9.03639 22.1459 10.8329 20.682 12.8231C18.1945 13.0813 15.839 13.4793 13.6816 14.0064C13.4285 12.9306 13.2413 11.8872 13.1093 10.8867C12.5919 6.77729 13.2303 3.58228 14.7163 2.73243C15.0465 2.5388 15.4757 2.45274 15.9821 2.45274V0.0537881C15.0575 0.0537881 14.221 0.247425 13.4945 0.656214C10.4015 2.39895 9.70811 7.83154 11.3041 14.6519C4.45781 16.7173 0 20.0199 0 23.5054C0 27.0016 4.47982 30.3149 11.3481 32.3696C9.76315 39.2115 10.4676 44.6548 13.5715 46.3976C14.287 46.8064 15.1235 47 16.0481 47C19.075 47 23.0375 44.8915 27.044 41.2339C31.0506 44.87 35.013 46.957 38.0399 46.957C38.9645 46.957 39.8011 46.7633 40.5275 46.3545C43.6205 44.6118 44.3139 39.1792 42.7179 32.3589C49.5422 30.3042 54 26.9908 54 23.5054ZM39.669 16.3301C39.2617 17.7178 38.7554 19.1485 38.183 20.5793C37.7318 19.7187 37.2585 18.8581 36.7411 17.9975C36.2348 17.1369 35.6955 16.2978 35.1561 15.4802C36.7191 15.7061 38.2271 15.9858 39.669 16.3301ZM34.6278 27.7869C33.7693 29.2392 32.8887 30.6162 31.9751 31.8963C30.3351 32.0362 28.6731 32.1115 27 32.1115C25.338 32.1115 23.6759 32.0362 22.0469 31.9071C21.1333 30.6269 20.2417 29.2607 19.3832 27.8192C18.5467 26.4099 17.7872 24.9792 17.0938 23.5376C17.7762 22.0961 18.5467 20.6546 19.3722 19.2454C20.2307 17.7931 21.1113 16.4161 22.0249 15.136C23.6649 14.9961 25.3269 14.9208 27 14.9208C28.662 14.9208 30.3241 14.9961 31.9531 15.1252C32.8667 16.4054 33.7583 17.7716 34.6168 19.2131C35.4533 20.6223 36.2128 22.0531 36.9062 23.4946C36.2128 24.9361 35.4533 26.3777 34.6278 27.7869ZM38.183 26.3884C38.7774 27.8299 39.2837 29.2715 39.702 30.6699C38.2601 31.0142 36.7411 31.3046 35.1671 31.5306C35.7065 30.7022 36.2458 29.8524 36.7521 28.981C37.2585 28.1204 37.7318 27.249 38.183 26.3884ZM27.022 37.8668C25.9984 36.8341 24.9747 35.683 23.9621 34.4244C24.9527 34.4674 25.9653 34.4997 26.989 34.4997C28.0236 34.4997 29.0473 34.4781 30.0489 34.4244C29.0583 35.683 28.0347 36.8341 27.022 37.8668ZM18.8329 31.5306C17.2699 31.3046 15.7619 31.025 14.32 30.6807C14.7273 29.293 15.2336 27.8622 15.806 26.4314C16.2572 27.2921 16.7305 28.1527 17.2479 29.0133C17.7652 29.8739 18.2935 30.713 18.8329 31.5306ZM26.967 9.14397C27.9906 10.1767 29.0143 11.3278 30.0269 12.5864C29.0363 12.5434 28.0236 12.5111 27 12.5111C25.9653 12.5111 24.9417 12.5326 23.9401 12.5864C24.9307 11.3278 25.9543 10.1767 26.967 9.14397ZM18.8219 15.4802C18.2825 16.3085 17.7432 17.1584 17.2369 18.0298C16.7305 18.8904 16.2572 19.751 15.806 20.6116C15.2116 19.1701 14.7053 17.7285 14.287 16.3301C15.7289 15.9966 17.2479 15.7061 18.8219 15.4802ZM8.86058 28.9487C4.96413 27.3243 2.44354 25.1943 2.44354 23.5054C2.44354 21.8164 4.96413 19.6757 8.86058 18.062C9.80718 17.664 10.8418 17.309 11.9095 16.9755C12.5369 19.084 13.3624 21.2786 14.3861 23.5269C13.3734 25.7645 12.5589 27.9483 11.9425 30.046C10.8528 29.7125 9.81818 29.3468 8.86058 28.9487ZM14.7823 44.3214C13.2854 43.4823 12.636 40.2873 13.1423 36.1778C13.2634 35.1666 13.4615 34.1016 13.7036 33.0151C15.861 33.5315 18.2165 33.9295 20.693 34.1877C22.179 36.1778 23.7199 37.9851 25.2719 39.5665C21.6837 42.826 18.3155 44.6118 16.0261 44.6118C15.5308 44.6011 15.1125 44.5042 14.7823 44.3214ZM40.8907 36.1241C41.4081 40.2335 40.7697 43.4285 39.2837 44.2783C38.9535 44.472 38.5243 44.558 38.0179 44.558C35.7395 44.558 32.3604 42.783 28.7721 39.545C30.3131 37.9636 31.8541 36.1671 33.318 34.1769C35.8055 33.9187 38.161 33.5207 40.3184 32.9936C40.5715 34.0801 40.7697 35.1236 40.8907 36.1241ZM45.1284 28.9487C44.1818 29.3468 43.1472 29.7018 42.0795 30.0352C41.4521 27.9268 40.6266 25.7322 39.6029 23.4839C40.6156 21.2463 41.4301 19.0625 42.0465 16.9648C43.1362 17.2982 44.1708 17.664 45.1394 18.062C49.0359 19.6864 51.5565 21.8164 51.5565 23.5054C51.5455 25.1943 49.0249 27.3351 45.1284 28.9487Z" fill="#61DAFB"/>
  <path d="M26.989 28.4216C29.7671 28.4216 32.0191 26.2205 32.0191 23.5054C32.0191 20.7902 29.7671 18.5892 26.989 18.5892C24.2109 18.5892 21.9588 20.7902 21.9588 23.5054C21.9588 26.2205 24.2109 28.4216 26.989 28.4216Z" fill="#61DAFB"/>
</svg>