<svg xmlns="http://www.w3.org/2000/svg" width="90" height="47" viewBox="0 0 90 47" fill="none">
  <path d="M77.4763 26.9887C74.3296 27.0011 71.6047 27.5276 69.3194 28.3116C68.4755 27.1481 67.6317 26.1314 67.4912 25.3722C67.333 24.4903 67.1396 23.9513 67.333 22.8981C67.5262 21.8447 68.4052 20.3505 68.4052 20.228C68.3875 20.1178 68.2117 19.5789 66.4011 19.5667C64.5906 19.5544 63.0258 19.8116 62.85 20.1423C62.6742 20.473 62.3226 21.2324 62.0941 22.0162C61.7777 23.1675 58.4727 27.2459 56.5917 29.3892C55.9764 28.5564 55.449 27.8216 55.3433 27.2335C55.1853 26.3518 54.9918 25.8128 55.1853 24.7597C55.3787 23.7062 56.2577 22.2122 56.2577 22.0897C56.2401 21.9795 56.0643 21.4406 54.2538 21.4283C52.4429 21.4161 50.8785 21.6733 50.7027 22.004C50.5269 22.3346 50.3335 23.1185 49.9467 23.8778C49.5774 24.6372 45.1825 31.4468 44.0398 33.2227C43.4597 34.1291 42.95 34.8517 42.5807 35.3416C42.2115 35.8315 42.5631 35.3783 42.528 35.4273C42.2115 35.8437 42.0357 36.0764 42.0357 36.0764V36.0888C41.7896 36.395 41.5259 36.6888 41.4027 36.6888C41.3148 36.6888 41.139 35.8682 41.4378 34.7416C42.0883 32.3777 43.6705 28.6913 43.653 28.5565C43.653 28.4953 43.9517 27.8461 42.6333 27.5155C41.3499 27.1848 40.893 27.7359 40.7874 27.7359C40.6819 27.7359 40.594 27.9319 40.594 27.9319C40.594 27.9319 42.018 23.7801 37.8692 23.7801C35.2674 23.7801 31.6811 25.752 29.9056 27.5524C28.7805 27.981 26.3896 28.8872 23.8582 29.8549C22.8913 30.2223 21.8893 30.6143 20.94 30.9694L20.7468 30.8222C15.719 27.0867 6.41933 24.4412 6.80608 19.4197C6.94672 17.5948 7.86086 12.7815 24.6672 6.95166C38.4321 2.1751 49.4545 3.48559 51.3705 6.40052C54.0954 10.5647 45.4813 18.3052 31.1717 19.4197C25.722 19.8484 22.8563 18.3787 22.1357 17.8275C21.3798 17.2519 21.2743 17.2274 20.993 17.3376C20.536 17.5091 20.8172 18.0235 20.993 18.3297C21.415 19.1013 23.1729 20.473 26.1615 21.1589C28.7807 21.759 35.1798 22.0897 42.9149 20.0076C51.5817 17.6683 58.3498 11.1771 56.3633 5.7514C54.3417 0.227731 41.1921 -1.58491 28.7633 1.48923C21.362 3.32637 13.3457 6.19231 7.57959 9.95232C0.72352 14.4104 -0.366419 18.3052 0.0906521 19.9219C1.69058 25.6905 13.0996 29.4505 17.6703 32.2307C17.4418 32.3163 17.2308 32.402 17.0374 32.4756C14.7521 33.2594 6.05016 36.4316 3.87028 39.7873C1.40913 43.5841 4.25703 46.3154 6.15564 46.6828C12.0272 47.8219 18.0395 45.7765 21.2917 42.4084C24.5262 39.0404 24.1396 34.668 22.6454 32.6716L22.5924 32.5981L24.3856 31.8633C25.546 31.3856 26.6887 30.9447 27.6905 30.5649C27.1282 31.6304 26.7237 32.8919 26.5129 34.7291C26.2668 36.8848 27.5325 39.6771 29.2026 40.7794C29.9409 41.2569 30.8199 41.2693 31.3649 41.2693C33.2986 41.2693 34.1776 40.1546 35.1445 38.8198C36.3399 37.1908 37.3947 35.3047 37.3947 35.3047C37.3947 35.3047 36.0762 40.412 39.68 40.412C40.9985 40.412 42.317 39.2239 42.9147 38.6116V38.6238C42.9147 38.6238 42.9499 38.5871 43.0202 38.5013C43.0939 38.4254 43.1643 38.3478 43.2311 38.2688V38.2443C43.7585 37.6074 44.9364 36.1499 46.6943 33.7371C48.9619 30.6263 51.142 26.7315 51.142 26.7315C51.142 26.7315 51.3529 27.6868 52.0034 29.2545C52.39 30.1855 53.2338 31.2019 53.8842 32.194C53.3568 32.7083 53.0404 33.0024 53.0404 33.0024L53.058 33.0147C52.6363 33.4066 52.1614 33.8231 51.6694 34.2394C49.8762 35.7336 47.7315 37.4362 47.4503 37.9261C47.1162 38.5016 47.1866 38.9302 47.837 39.2733C48.3117 39.5183 49.1555 39.5671 50.052 39.5183C51.6694 39.4446 52.7945 39.1631 53.357 38.9915C54.236 38.771 55.238 38.4403 56.2049 37.9504C57.9629 37.0442 59.0353 35.7582 58.9298 34.0436C58.877 33.1005 58.4375 32.1697 57.8926 31.2879C58.0508 31.1287 58.2092 30.9693 58.3672 30.798C61.1448 27.9686 63.2895 24.8579 63.2895 24.8579C63.2895 24.8579 63.5005 25.8132 64.1509 27.3809C64.4848 28.177 65.153 29.0467 65.7507 29.904C63.1489 31.386 61.514 33.1006 60.9514 34.2274C59.9142 36.3095 60.7229 37.2526 62.2523 37.473C62.9378 37.571 63.9224 37.3506 64.6606 37.1301C65.5747 36.9219 66.6822 36.5666 67.702 36.0401C69.46 35.1337 71.1476 33.8722 71.0597 32.1698C71.007 31.386 70.7081 30.6144 70.3038 29.8795C72.5188 29.2426 75.3842 28.8752 79.0233 29.1814C86.8463 29.8183 88.3933 33.2231 88.0946 34.6438C87.7958 36.0647 86.1608 36.8484 85.6157 37.0934C85.0707 37.3261 84.8949 37.4119 84.9477 37.5833C85.018 37.8406 85.2641 37.8282 85.7388 37.7793C86.3892 37.7057 89.8524 36.6158 89.993 33.995C90.204 30.6264 85.6157 26.9521 77.4763 26.9887ZM17.1429 41.1592C14.5587 43.1311 10.9197 43.8782 9.37271 43.2413C7.70265 42.5677 8.35292 39.665 11.535 37.5706C13.4688 36.2969 15.9827 35.1211 17.6352 34.3985C18.0043 34.2393 18.5669 34.0067 19.2349 33.7249C19.3404 33.676 19.4107 33.6514 19.4107 33.6514C19.5338 33.6024 19.6744 33.5412 19.815 33.4799C20.9929 36.4684 19.8678 39.0893 17.1429 41.1592ZM36.0411 32.2062C35.1445 33.7371 33.2459 37.6686 32.1032 37.4482C31.1186 37.2645 30.521 34.2883 31.9097 31.3489C32.6128 29.8668 34.1071 28.1033 34.9861 27.4173C36.4102 26.315 37.9571 25.9476 38.344 26.4007C38.8011 26.9887 36.6036 31.2509 36.0411 32.2062ZM51.6342 37.3992C51.2475 37.534 50.8959 37.6319 50.7377 37.5585C50.6146 37.5095 50.8957 37.3258 50.8957 37.3258C50.8957 37.3258 52.847 35.8684 53.6205 35.1947C54.06 34.8029 54.5874 34.3498 55.15 33.8353V33.9822C55.1501 35.7458 52.7242 36.9215 51.6342 37.3992ZM63.6585 35.4886C63.3773 35.3416 63.4126 34.8884 64.3617 33.4677C64.7311 32.9043 65.5747 31.9612 67.0338 31.0672C67.2096 31.4346 67.3153 31.7897 67.2975 32.1205C67.2801 34.325 65.0299 35.1456 63.6585 35.4886Z" fill="#CF649A"/>
</svg>