<svg xmlns="http://www.w3.org/2000/svg" width="47" height="47" viewBox="0 0 47 47" fill="none">
  <g clip-path="url(#clip0_7_64)">
    <path d="M0 23.5V0H47V47H0" fill="#007ACC"/>
    <path d="M10.3047 23.5822V25.4975H16.4147V42.8875H20.7505V25.4975H26.8605V23.6175C26.8605 22.56 26.8605 21.7022 26.8135 21.6787C26.8135 21.6435 23.0887 21.6317 18.565 21.6317L10.34 21.667V23.594L10.3047 23.5822ZM37.7645 21.62C38.963 21.902 39.8795 22.4425 40.702 23.3002C41.1368 23.7702 41.783 24.5927 41.83 24.8042C41.83 24.8747 39.7973 26.2495 38.5635 27.0132C38.5165 27.0485 38.3285 26.8487 38.1405 26.5432C37.5295 25.6737 36.9067 25.2977 35.9315 25.2272C34.5215 25.1332 33.5815 25.8735 33.5815 27.1072C33.5815 27.4832 33.652 27.6947 33.793 28.0002C34.1103 28.6465 34.6977 29.0342 36.519 29.8332C39.8795 31.2785 41.3365 32.2302 42.2177 33.5932C43.2165 35.1207 43.4398 37.5177 42.77 39.3155C42.018 41.2777 40.185 42.6055 37.5648 43.0402C36.7423 43.1812 34.8623 43.1577 33.981 43.005C32.101 42.6525 30.3032 41.7125 29.1987 40.5022C28.764 40.0322 27.9298 38.775 27.9768 38.6927L28.4233 38.4107L30.1857 37.3885L31.5135 36.613L31.819 37.0242C32.2067 37.6352 33.0762 38.4577 33.5815 38.7397C35.109 39.527 37.1535 39.4212 38.164 38.5047C38.5987 38.1052 38.7868 37.6822 38.7868 37.0947C38.7868 36.5542 38.7045 36.3075 38.4343 35.8962C38.0583 35.3792 37.3062 34.9562 35.1912 34.0162C32.759 32.9822 31.725 32.3242 30.7615 31.3137C30.2092 30.7027 29.704 29.751 29.469 28.9637C29.2928 28.2822 29.234 26.6137 29.3985 25.944C29.9037 23.594 31.678 21.949 34.216 21.479C35.0385 21.3145 36.9773 21.385 37.788 21.5965L37.7645 21.62Z" fill="white"/>
  </g>
  <defs>
    <clipPath id="clip0_7_64">
      <rect width="47" height="47" fill="white"/>
    </clipPath>
  </defs>
</svg>