<svg xmlns="http://www.w3.org/2000/svg" width="50" height="50" viewBox="0 0 50 50" fill="none">
  <g clip-path="url(#clip0_8_131)">
    <path d="M49.4808 7.63191L26.3298 48.8642C25.8518 49.7155 24.6237 49.7205 24.1386 48.8734L0.528648 7.63574C3.69549e-06 6.71269 0.792585 5.59443 1.84294 5.78158L25.0188 9.90734C25.1666 9.93365 25.318 9.93339 25.4658 9.90657L48.1569 5.78733C49.2038 5.59731 50 6.70693 49.4808 7.63191Z" fill="url(#paint0_linear_8_131)"/>
    <path d="M36.0585 0.369584L18.9263 3.71322C18.7894 3.73993 18.6653 3.81119 18.5735 3.91581C18.4817 4.02042 18.4274 4.15245 18.4192 4.29114L17.3654 22.019C17.3596 22.1163 17.3766 22.2135 17.4151 22.303C17.4537 22.3925 17.5126 22.4719 17.5873 22.5348C17.662 22.5976 17.7504 22.6423 17.8454 22.6652C17.9405 22.6881 18.0396 22.6886 18.1348 22.6667L22.9048 21.5704C23.351 21.4678 23.7543 21.8593 23.6625 22.3063L22.2454 29.2181C22.1501 29.6832 22.5885 30.0809 23.0445 29.9429L25.9908 29.0514C26.4474 28.9134 26.8863 29.3122 26.7897 29.7778L24.5377 40.6345C24.3968 41.3137 25.3037 41.6839 25.6818 41.1018L25.9346 40.7129L39.8949 12.9637C40.1288 12.4991 39.7255 11.9693 39.2134 12.0679L34.3033 13.0117C33.8421 13.1002 33.4495 12.6723 33.5797 12.2228L36.7843 1.15823C36.9146 0.707629 36.5203 0.279464 36.0585 0.369584Z" fill="url(#paint1_linear_8_131)"/>
  </g>
  <defs>
    <linearGradient id="paint0_linear_8_131" x1="-105.624" y1="868.874" x2="6350.7" y2="9608.88" gradientUnits="userSpaceOnUse">
      <stop stop-color="#41D1FF"/>
      <stop offset="1" stop-color="#BD34FE"/>
    </linearGradient>
    <linearGradient id="paint1_linear_8_131" x1="2563.26" y1="237.569" x2="3886.6" y2="9286.09" gradientUnits="userSpaceOnUse">
      <stop stop-color="#FFEA83"/>
      <stop offset="0.083" stop-color="#FFDD35"/>
      <stop offset="1" stop-color="#FFA800"/>
    </linearGradient>
    <clipPath id="clip0_8_131">
      <rect width="50" height="50" fill="white"/>
    </clipPath>
  </defs>
</svg>