<svg xmlns="http://www.w3.org/2000/svg" width="47" height="47" viewBox="0 0 47 47" fill="none">
  <g clip-path="url(#clip0_8_112)">
    <path d="M23.5107 6.3461e-06C36.3534 0.0252241 46.6624 10.2423 46.9922 22.8628C47.3414 36.4183 36.2971 47.3026 22.9617 46.9942C10.4934 46.711 0.574239 36.7616 0.0252233 24.5892C-0.585872 11.0997 10.2063 -0.00969278 23.5107 6.3461e-06Z" fill="#3398C2"/>
    <path d="M14.8544 16.4575C15.0077 15.862 15.2289 15.2858 15.5121 14.7369C15.7895 14.2073 16.1853 13.8116 16.7595 13.6215C17.1708 13.4876 17.5142 13.2509 17.8226 12.9386C18.9109 11.8446 20.2321 11.2083 21.7685 11.0376C22.0207 11.0124 22.1488 10.9193 22.2458 10.6826C22.4766 10.122 22.7638 9.58274 23.144 9.10555C23.6464 8.47316 24.2478 8.00179 25.117 8.05222C25.666 8.08326 26.1238 8.3141 26.4575 8.75638C26.8319 9.24909 27.1093 9.8 27.377 10.3548C27.4643 10.5352 27.5361 10.6011 27.7573 10.5546C28.5682 10.3742 29.2258 10.7292 29.575 11.4838C29.9805 12.3664 30.1764 13.3014 30.2734 14.2577C30.4791 16.246 30.3452 18.2033 29.672 20.1082C29.2763 21.2275 28.7214 22.2653 28.0444 23.241C27.9629 23.3594 27.9416 23.437 28.0541 23.5592C29.868 25.5941 30.7565 27.9665 30.6537 30.6997V30.8956C30.7817 30.9014 30.8807 30.8238 30.9777 30.7714C31.7789 30.3602 32.5083 29.8364 33.3153 29.431C34.4502 28.8607 35.6375 28.4611 36.9256 28.4708C38.8307 28.4863 40.0548 30.3408 39.2575 31.9935C38.9432 32.6453 38.4311 33.1089 37.7269 33.2622C36.4426 33.5493 35.3019 34.1312 34.2135 34.8451C32.421 36.0361 30.4577 36.9207 28.4033 37.5977C28.2656 37.6442 28.1356 37.7005 28.0172 37.7936C27.4682 38.2048 26.8261 38.3736 26.1568 38.4667C24.1276 38.7499 22.0886 38.8721 20.0439 38.9594C19.2019 38.9963 18.3639 38.8818 17.6189 38.4357C17.4191 38.3115 17.2445 38.0807 17.0389 38.0458C16.839 38.0147 16.6121 38.199 16.3909 38.2514C15.0814 38.5443 13.8534 38.298 12.7185 37.6093C12.0453 37.2039 11.7272 36.5618 11.7621 35.7704C11.7718 35.5589 11.7117 35.4057 11.5875 35.2369C11.0424 34.4765 10.7766 33.6094 10.6272 32.6938C10.3343 30.8917 10.9764 29.4019 12.1676 28.0964C12.2801 27.9723 12.3208 27.8501 12.3208 27.6852C12.3208 25.8831 12.6642 24.1663 13.5896 22.5951C14.1075 21.7163 14.7768 20.9618 15.5218 20.2789C15.6654 20.1509 15.6809 20.0636 15.5839 19.8987C15.2696 19.375 15.0756 18.7988 14.9049 18.213C14.7613 18.1102 14.8544 17.9511 14.7962 17.8231C14.7865 17.7261 14.7962 17.6272 14.7652 17.5302V16.8881C14.7904 16.795 14.7904 16.698 14.7904 16.601C14.8137 16.5545 14.804 16.4924 14.8544 16.4575Z" fill="#FEFEFE"/>
    <path d="M14.8389 17.8192C14.8797 17.9473 14.8292 18.0908 14.9049 18.215C14.8835 18.2305 14.8835 18.3333 14.8544 18.2615C14.7982 18.1238 14.7574 17.9686 14.7574 17.8192C14.7477 17.3265 14.7012 16.828 14.8389 16.3391C14.8447 16.3799 14.8486 16.4206 14.8603 16.4575C14.8544 16.504 14.8506 16.5506 14.8447 16.5913C14.7982 16.6786 14.8506 16.7814 14.804 16.8687V17.5418C14.8389 17.6291 14.7943 17.7319 14.8389 17.8192Z" fill="#3298C3"/>
    <path d="M29.2744 30.9674C29.2744 31.4407 29.1657 31.9024 29.1056 32.364C29.0551 32.7695 29.0959 32.816 29.5072 32.7442C30.4325 32.5852 31.2687 32.1953 32.0757 31.7375C32.939 31.2448 33.7615 30.6841 34.685 30.3156C35.3989 30.0285 36.1283 29.8384 36.9043 29.8384C37.5775 29.8384 38.045 30.2031 38.1265 30.7792C38.2041 31.3127 37.9112 31.8228 37.3757 31.9353C35.8451 32.2593 34.524 33.0139 33.2358 33.8519C31.5092 34.9673 29.6294 35.7723 27.6719 36.3892C27.6002 36.4105 27.507 36.426 27.4605 36.4706C26.9988 36.9595 26.3877 37.041 25.7707 37.1224C24.0403 37.3494 22.2982 37.4503 20.5522 37.5531C20.0497 37.5841 19.5453 37.5996 19.0429 37.5026C18.2417 37.3436 17.9022 37.0448 17.78 36.3872C17.6713 35.7956 17.9487 35.2369 18.5404 34.8509C18.6025 34.8102 18.6685 34.7694 18.7674 34.7073C18.4492 34.5114 18.1873 34.2806 17.9875 33.9935C17.8905 33.8596 17.8382 33.9431 17.8071 34.0556C17.7101 34.4261 17.6112 34.8005 17.5142 35.171C17.4482 35.4173 17.3648 35.6598 17.262 35.8945C16.9632 36.5773 16.42 36.9071 15.7003 36.9731C14.965 37.039 14.2725 36.8761 13.6148 36.5521C13.1628 36.331 13.0289 35.9973 13.1783 35.5085C13.2559 35.2466 13.4053 35.0197 13.5838 34.7423C12.963 34.8664 12.6894 34.5056 12.4741 34.0691C11.991 33.1128 11.8261 32.1022 12.0221 31.0547C12.1812 30.2225 12.67 29.5455 13.2559 28.9596C13.5993 28.6163 13.7021 28.2865 13.6924 27.8035C13.6148 25.014 14.6682 22.7231 16.8371 20.952C17.0272 20.793 17.2174 20.6281 17.4172 20.4846C17.5413 20.3973 17.5549 20.341 17.454 20.213C16.8934 19.5088 16.4569 18.7445 16.2571 17.8561C16.0301 16.8551 16.3696 15.9861 16.874 15.1539C16.9458 15.0414 17.0583 14.9851 17.1824 14.9386C17.8149 14.7116 18.3484 14.3683 18.8314 13.8853C19.9198 12.797 21.2661 12.2985 22.8065 12.3644C23.0024 12.3741 23.0897 12.3179 23.1498 12.1336C23.3807 11.4605 23.6678 10.8126 24.0539 10.2132C24.1974 9.98622 24.3565 9.77672 24.5621 9.60796C24.9424 9.2937 25.2664 9.34026 25.5224 9.75732C25.9958 10.5119 26.3605 11.3247 26.7291 12.1355C26.8222 12.3412 26.894 12.4129 27.1093 12.2733C27.3615 12.1142 27.6428 12.0017 27.9261 11.9028C28.153 11.8252 28.285 11.8776 28.3839 12.1142C28.671 12.8067 28.8262 13.5322 28.9135 14.2771C28.9387 14.4827 28.9853 14.6825 28.9601 14.8882C28.9446 15.3343 28.9659 15.7824 28.9698 16.2344C28.9698 16.4342 28.898 16.6359 28.9601 16.8396C28.9135 18.0617 28.5895 19.2178 28.1181 20.3371C27.6758 21.3846 27.0337 22.3138 26.3915 23.2449C26.1393 23.6038 26.1452 23.6096 26.473 23.9025C28.0754 25.3458 28.9601 27.1595 29.2569 29.2758C29.2666 29.3573 29.2627 29.4446 29.2627 29.5319C29.1968 29.7278 29.2685 29.9179 29.2724 30.108C29.2899 30.3971 29.2239 30.6861 29.2744 30.9674Z" fill="#3398C2"/>
    <path d="M28.9659 16.8435C28.9038 16.7931 28.9193 16.7193 28.9193 16.6534V15.086C28.9193 15.0201 28.9038 14.9483 28.9659 14.8959C29.0338 15.5438 29.0377 16.1956 28.9659 16.8435Z" fill="#2B95C1"/>
    <path d="M29.2743 30.9674C29.1715 30.5716 29.253 30.172 29.2278 29.7763C29.222 29.6948 29.1968 29.6017 29.2743 29.5358C29.3403 30.013 29.3306 30.4902 29.2743 30.9674Z" fill="#2693BF"/>
    <path d="M14.7982 16.8687C14.804 16.7756 14.7575 16.6728 14.8389 16.5913C14.8389 16.6825 14.8448 16.7814 14.7982 16.8687ZM14.8389 17.8192C14.7613 17.7377 14.8021 17.6349 14.7982 17.5418C14.8506 17.6291 14.8389 17.7261 14.8389 17.8192Z" fill="#3398C2"/>
  </g>
  <defs>
    <clipPath id="clip0_8_112">
      <rect width="47" height="47" fill="white"/>
    </clipPath>
  </defs>
</svg>